<svg version="1.2" xmlns="http://www.w3.org/2000/svg" viewBox="0 0 522 417" width="522" height="417">
	<title>logo-svg</title>
	<style>
		.s0 { fill: #00c3a5 } 
		.s1 { fill: #ababab } 
	</style>
	<path id="Layer" fill-rule="evenodd" class="s0" d="m2342 140h39.5l3.2 32.2h0.5c10.1-14.7 34.6-33.6 63.3-35.2v42c-41.7 8.2-60.9 35.8-60.9 60.9v100.1h-45.6zm-210 100.6v-0.8c0-61.5 29.9-105.8 91.9-105.8 57.4 0 84 33.2 84 102.9 0 7.4-0.5 17.6-1.3 25.1h-126.7c3.2 28.2 19.7 45 53.4 45 21.3 0 41.3-2 59.9-4.4v38.2c-20.9 3.3-38.6 5.2-61.1 5.2-65.7 0-100.1-32.8-100.1-105.4zm47.2-12.6h82.4c0-31.3-8.2-56-39-56-32 0-42.6 26.4-43.4 56zm-256.2-88h39.7c0 0 1.8 19.9 2.7 27h0.5c11-17.2 34.1-33 62-33 47.2 0 70.6 25.1 70.6 76.1v129.9h-45.6v-120.5c0-32.6-12.5-45.3-37.1-43.6-22.3 1.6-47.2 27.1-47.2 58.9v105.2h-45.6zm-215 0h39.7c0 0 1.8 19.9 2.7 27h0.5c11-17.2 34.1-33 62-33 47.2 0 70.6 25.1 70.6 76.1v129.9h-45.6v-120.5c0-32.6-12.5-45.3-37.1-43.6-22.3 1.6-47.2 27.1-47.2 58.9v105.2h-45.6zm-179.7-3.9c19.8-1.6 41.3-2.1 62.1-2.1 48.9 0 78.1 18.9 78.1 72.3v133.7h-41.1l-2-20h-0.5c-14.1 15.1-34.5 24-60.7 24-34.7 0-62.2-22.4-62.2-66.9 0-41.4 34.5-79.9 120.8-61.6v-12c0-23.9-13.9-30.5-41.5-30.5-16.9 0-31.2 1.1-53 3zm94.5 111c-36.5-9.3-73.1 2.1-73.1 30.4 0 18.7 12.4 29.8 31 28.9 14.6-0.6 30.7-7.1 42.1-17.2 0 0 0-42.1 0-42.1zm-155.2-187.2v280h-45.6v-274.7zm-261.6 80h38.5l2.5 21.7h0.7c13.4-16.2 35.8-27.7 61.6-27.7 51.3 0 78.8 38.2 78.8 103v2c0 62.4-27.5 107.1-84.9 107.1-20.1 0-39.8-7.8-51.7-16.8v87.7h-45.5zm45.5 58.6v92.1c9.4 7.4 24.6 13.9 39.4 13.9 38.5 0 49.6-29.9 49.6-65.2 0-32-6.1-63-43.5-63-18 0-35.5 10.7-45.5 22.2zm-184.8 41.4c0.1 43.7 19 67 56.7 67 15.9 0 32.1-1.9 46.8-3.9v36.9c-12.1 2.4-32.1 5-52.6 5-56.2 0-98.4-30.9-98.6-105 0.2-74 42.4-105 98.6-105 20.5 0 40.5 2.6 52.6 5v37c-14.7-2-30.9-4-46.8-4-37.7 0-56.6 23.3-56.7 67zm-264.7 1.1v-2.1c0-66.8 30.7-105 94.3-105 63.1 0 93.9 38.2 93.9 105v2.1c0 66.8-30.8 104.9-93.9 104.9-63.6 0-94.3-38.1-94.3-104.9zm94.2-69.1c-32.3 0-47.2 21.9-47.2 67.7 0 45.8 14.9 67.3 47.2 67.3 32.3 0 46.8-21.4 46.8-67.3 0-45.8-14.5-67.7-46.8-67.7zm-336.2 168v-280h70.3c98 0 143.6 29.5 143.6 140 0 110.6-45.6 140-143.6 140zm161.6-140c0-62.9-12.8-94.7-80.4-94.7h-31.3v189.5h31.3c67.6 0 80.4-31.8 80.4-94.8zm-488.7 123.3c10.1-24.8 38.6-59.5 67.6-77.4l64.2 106.3-65.8 47.8zm-94.8 76.6l-90.6-58.2c68.6-128.2 196.7-219.5 347.3-236.5l25.2 77.7c-124.1 24.5-227.7 106.4-281.9 217zm19.7-263.8l11.5-136.1h81.3l10.4 123.1c-46.7 16-74.2 28.8-105.6 48.1-23.2 14.3-44.4 30.9-63.3 50.1l-92.1-38.9 25.1-77.5z"/>
	<path id="Layer" fill-rule="evenodd" class="s1" d="m2837 140h39.5l3.2 32.2h0.5c10.1-14.7 34.6-33.6 63.3-35.2v42c-41.7 8.2-60.9 35.8-60.9 60.9v100.1h-45.6zm725.1 96.9v2.1c0 62.3-27.5 107-84.9 107-20.1 0-39.8-7.7-51.7-16.8v87.8h-45.5v-277h38.5l2.5 21.7h0.7c13.4-16.2 35.8-27.7 61.6-27.7 51.3 0 78.8 38.1 78.8 102.9zm-47.6 2.5c0-32-6.2-63-43.5-63-18 0-35.5 10.6-45.5 22.2v92.1c9.4 7.4 24.6 13.9 39.4 13.9 38.5 0 49.6-29.9 49.6-65.2zm-369.3-0.4v2c0 66.9-30.7 105-93.9 105-63.5 0-94.3-38.1-94.3-105v-2c0-66.9 30.8-105 94.3-105 63.2 0 93.9 38.1 93.9 105zm-47.2 0.7c0-45.8-14.5-67.7-46.8-67.7-32.3 0-47.2 21.9-47.2 67.7 0 45.8 14.9 67.3 47.2 67.3 32.3 0 46.8-21.4 46.8-67.3zm-353 60.4v-69.1h-45v-42h93v149.1c-17.3 3.1-57.8 7.9-87 7.9-84.8 0-136.8-48.6-137-146 0.2-97.4 52.2-146 137-146 29.2 0 67 4.4 83 7v43.3c-20.5-2.4-56.9-5.5-79-5.5-59 0-89.6 37.1-89.8 101.2 0.2 64.1 30.9 101.2 89.8 101.2 8.7 0 24.7-0.5 35-1.1zm516.7 6.9c23.7 0 39.4-8.6 39.4-51.7v-115.3h45.5l0.1 108.1c0 69-24.7 97.9-85 97.9-60.3 0-85-28.9-85-97.9l0.1-108.1h45.5v115.3c0 43.1 15.8 51.7 39.4 51.7z"/>
</svg>